<svg width="244" height="210" viewBox="0 0 244 210" fill="none" xmlns="http://www.w3.org/2000/svg">
<g clip-path="url(#clip0_220_114)">
<path d="M101.496 182.439L104.161 173.765C100.955 170.238 96.9355 167.547 92.452 165.925C96.8324 173.177 92.5878 182.638 94.3566 190.922C94.9281 193.502 96.0731 195.92 97.7068 197.997C99.3405 200.075 101.421 201.758 103.794 202.922L107.838 207.93C109.958 204.228 111.25 200.111 111.625 195.863C112 191.614 111.448 187.335 110.008 183.319C109.178 181.075 108.069 178.944 106.706 176.976C104.303 179.8 101.496 182.439 101.496 182.439Z" fill="#F2F2F2"/>
<path d="M86.8429 183.547L85.3575 174.596C80.9136 172.868 76.115 172.251 71.3783 172.798C78.5353 177.336 78.9583 187.696 84.2385 194.322C85.9012 196.377 88.0051 198.03 90.3944 199.162C92.7837 200.293 95.397 200.872 98.0408 200.857L103.895 203.536C104.141 199.278 103.46 195.017 101.899 191.048C100.338 187.078 97.9349 183.493 94.8545 180.541C93.11 178.902 91.1659 177.489 89.0681 176.336C88.1772 179.934 86.8429 183.547 86.8429 183.547Z" fill="#F2F2F2"/>
<path d="M174.065 205.704L169.96 205.704L168.007 189.881L174.066 189.881L174.065 205.704Z" fill="#FFB6B6"/>
<path d="M175.112 209.68L161.876 209.68V209.513C161.876 208.147 162.419 206.838 163.385 205.872C164.351 204.907 165.661 204.364 167.028 204.364H167.028L169.446 202.531L173.957 204.365L175.112 204.365L175.112 209.68Z" fill="#2F2E41"/>
<path d="M240.375 190.741L237.577 193.742L224.662 184.381L228.793 179.952L240.375 190.741Z" fill="#FFB6B6"/>
<path d="M244 192.687L234.975 202.363L234.853 202.249C233.853 201.318 233.265 200.028 233.217 198.663C233.169 197.299 233.665 195.971 234.597 194.972L234.597 194.972L234.903 191.955L239.321 189.907L240.109 189.062L244 192.687Z" fill="#2F2E41"/>
<path d="M234.301 181.848L229.963 190.917L203.319 173.288L199.443 168.01L186.734 150.705L181.568 158.897L177.974 167.461C176.802 168.224 175.815 169.239 175.083 170.43C174.352 171.621 173.894 172.96 173.743 174.35L173.579 175.866L175.85 196.273L167.217 198.922L162.258 171.508L163.879 165.568L165.548 157.23L173.95 130.88H196.433L209.328 158.311L210.271 163.9L213.927 168.094L234.301 181.848Z" fill="#2F2E41"/>
<path d="M187.577 87.7698L191.362 90.6499L195.926 92.0516C195.926 92.0516 197.813 118.577 199.514 120.276C201.214 121.976 199.68 122.021 200.022 124.229C200.364 126.436 201.194 130.961 201.194 130.961C189.717 137.032 179.823 137.195 171.875 130.09C171.774 129.651 171.825 129.19 172.022 128.784C172.218 128.378 172.548 128.051 172.956 127.857C174.435 127.073 171.592 123.412 172.801 122.8C174.01 122.188 172.309 116.878 172.309 116.878L173.425 105.8L172.544 104.029L174.694 93.1924L178.425 91.8306L179.916 88.2416L187.577 87.7698Z" fill="#3F3D56"/>
<path d="M189.948 134.915C189.931 134.436 190.019 133.959 190.207 133.518C190.394 133.076 190.676 132.682 191.033 132.361C191.39 132.041 191.812 131.802 192.271 131.662C192.73 131.523 193.214 131.485 193.689 131.553L199.023 121.192L201.994 126.468L196.473 135.498C196.307 136.288 195.857 136.989 195.208 137.469C194.559 137.95 193.756 138.175 192.951 138.103C192.147 138.031 191.397 137.667 190.844 137.079C190.29 136.492 189.971 135.722 189.948 134.915H189.948Z" fill="#FFB6B6"/>
<path d="M198.931 132.38L210.371 114.66L210.334 114.579C210.29 114.485 207.7 108.894 205.19 103.772C204.803 102.984 204.418 102.206 204.045 101.461C203.884 101.14 203.725 100.825 203.569 100.517C202.515 98.4402 201.594 96.7234 201.044 95.9078C199.828 94.0639 198.017 92.6912 195.912 92.0176L195.859 92.004L195.809 92.025C194.779 92.4591 193.929 93.2309 193.397 94.213C192.865 95.195 192.684 96.3289 192.884 97.4275C193.877 102.727 196.088 107.723 199.343 112.021L201.198 114.465L194.753 128.468L198.931 132.38Z" fill="#3F3D56"/>
<path d="M159.59 64.4568C159.905 64.8183 160.137 65.2444 160.269 65.7051C160.402 66.1658 160.432 66.6499 160.357 67.1233C160.281 67.5968 160.103 68.048 159.835 68.4452C159.567 68.8425 159.214 69.1761 158.803 69.4225L161.188 80.8279L155.554 78.599L154.153 68.11C153.785 67.3918 153.693 66.5636 153.895 65.7821C154.096 65.0007 154.578 64.3204 155.248 63.8701C155.918 63.4198 156.73 63.2308 157.531 63.3389C158.331 63.4471 159.064 63.8448 159.59 64.4568H159.59Z" fill="#FFB6B6"/>
<path d="M154.209 72.0786L156.487 93.0436L156.568 93.0831C156.634 93.1158 159.52 94.5305 163.063 96.2153C163.661 96.4995 163.575 97.7306 164.2 98.0249C164.63 98.2276 165.766 97.4921 166.201 97.6953C170.073 99.505 173.989 101.265 175.549 101.741C177.656 102.409 179.928 102.335 181.987 101.534L182.037 101.512L182.063 101.463C182.589 100.478 182.763 99.3436 182.557 98.2461C182.352 97.1486 181.778 96.154 180.93 95.4262C176.82 91.9341 171.955 89.4444 166.717 88.1537L163.737 87.4229L159.92 72.4884L154.209 72.0786Z" fill="#3F3D56"/>
<path d="M183.542 86.5819C187.676 86.5819 191.028 83.2323 191.028 79.1004C191.028 74.9685 187.676 71.6189 183.542 71.6189C179.407 71.6189 176.055 74.9685 176.055 79.1004C176.055 83.2323 179.407 86.5819 183.542 86.5819Z" fill="#FFB6B6"/>
<path d="M176.109 74.0871C176.725 72.2972 179.789 71.0556 184.758 70.883C189.726 70.7104 190.987 76.5617 190.987 76.5617C194.303 79.2506 187.445 86.4495 187.113 86.1902L187.262 84.8377C187.509 82.5974 188.559 80.8494 187.224 78.5146L185.942 78.5293C184.286 78.8475 182.631 79.1657 180.975 79.4838L182.935 77.7591L182.88 77.6737C182.046 78.1077 181.139 78.383 180.204 78.4855C179.151 78.5474 177.999 78.1284 177.495 77.2021C177.36 76.9475 177.277 76.6685 177.252 76.3816C175.832 76.9488 175.182 78.6991 175.182 78.6991C175.182 78.6991 175.493 75.8771 176.109 74.0871Z" fill="#2F2E41"/>
<path d="M30.1625 74.536C30.0609 74.4072 29.9515 74.2849 29.835 74.1695C29.8634 74.1304 29.8919 74.0877 29.9204 74.0486L30.1625 74.536Z" fill="#2F2E41"/>
<path d="M31.6185 104.626C30.3939 106.8 27.9482 108.013 25.5239 108.607C22.8008 109.32 19.9334 109.265 17.2399 108.447C16.8982 108.337 16.5564 108.209 16.2253 108.067C16.3845 107.644 16.5107 107.21 16.6027 106.768C16.7266 106.17 16.7886 105.561 16.7878 104.95C16.5181 105.476 16.1686 105.957 15.7519 106.377C15.4304 106.714 15.0652 107.007 14.6661 107.248C13.4281 106.497 12.3561 105.502 11.5156 104.324C11.5689 104.192 11.6224 104.061 11.6722 103.929C11.9307 103.242 12.1354 102.535 12.2845 101.816C12.4868 100.843 12.5882 99.8527 12.5871 98.8594C12.1482 99.7153 11.5789 100.498 10.8997 101.179C10.696 101.397 10.4797 101.602 10.2518 101.794C9.89884 100.723 9.7624 99.5926 9.8504 98.4683C9.9384 97.3439 10.2491 96.2482 10.7644 95.2449C12.1741 92.6407 14.9082 91.0932 17.3432 89.4104C19.7817 87.7276 22.2203 85.4508 22.4267 82.4944C22.5656 80.4986 21.64 78.4992 22.0102 76.5354C22.1659 75.7072 22.5461 74.9377 23.1092 74.3106C23.6724 73.6834 24.3969 73.2228 25.204 72.9788C26.011 72.7348 26.8696 72.7168 27.6861 72.9267C28.5027 73.1367 29.246 73.5666 29.8349 74.1695C28.4537 76.1262 27.0796 78.1505 26.5207 80.4772C25.9511 82.8466 26.4174 85.6251 28.2864 87.194C28.9272 87.7348 29.7139 88.119 30.2088 88.7949C30.8673 89.6914 30.8709 90.8868 30.9777 91.9897C31.1913 94.1349 31.8926 96.1983 32.2699 98.3222C32.6509 100.443 32.6722 102.744 31.6185 104.626Z" fill="#2F2E41"/>
<path d="M6.51453 192.85L9.76362 195.358L20.9924 184.028L16.1971 180.326L6.51453 192.85Z" fill="#A0616A"/>
<path d="M6.65276 190.399L12.0255 194.058L10.3253 196.257L12.6024 203.398C12.7149 203.75 12.7116 204.13 12.5931 204.48C12.4746 204.831 12.247 205.135 11.9436 205.347C11.6402 205.559 11.2768 205.669 10.9065 205.66C10.5362 205.652 10.1784 205.525 9.88532 205.299L3.77083 200.577L4.39874 197.588L2.3054 199.445L0 197.665L6.65276 190.399Z" fill="#2F2E41"/>
<path d="M22.9982 80.8566C22.9977 82.1252 23.3088 83.3745 23.9043 84.4948C24.4998 85.6152 25.3613 86.5724 26.4134 87.2823C27.4654 87.9923 28.6757 88.4333 29.9381 88.5666C31.2005 88.7 32.4764 88.5216 33.6537 88.0471C34.831 87.5727 35.8737 86.8167 36.6904 85.8455C37.5071 84.8743 38.0728 83.7175 38.3377 82.4769C38.6026 81.2362 38.5587 79.9495 38.2099 78.7298C37.8611 77.51 37.218 76.3944 36.337 75.4811L36.2998 75.4439C36.2377 75.3788 36.1757 75.3137 36.1105 75.2517C36.1101 75.2517 36.1097 75.2516 36.1094 75.2514C36.109 75.2513 36.1086 75.2511 36.1083 75.2508C36.1081 75.2505 36.1078 75.2501 36.1077 75.2497C36.1075 75.2494 36.1075 75.249 36.1075 75.2486C36.0268 75.1742 35.9461 75.0998 35.8624 75.0285C34.4975 73.8318 32.5791 72.533 30.6217 72.533C26.3378 72.533 22.9982 76.5754 22.9982 80.8566Z" fill="#2F2E41"/>
<path d="M67.2013 76.8766C67.2385 77.2899 67.1844 77.7064 67.0431 78.0966C66.9017 78.4869 66.6765 78.8414 66.3832 79.1352C66.0899 79.4291 65.7357 79.655 65.3456 79.7973C64.9554 79.9395 64.5388 79.9945 64.1251 79.9585L44.9214 97.2862L41.6167 92.0701L61.5325 76.6777C61.6392 75.9872 61.9956 75.3597 62.5343 74.9143C63.073 74.4688 63.7565 74.2363 64.4553 74.2609C65.154 74.2854 65.8195 74.5652 66.3256 75.0473C66.8318 75.5294 67.1433 76.1802 67.2013 76.8766V76.8766Z" fill="#A0616A"/>
<path d="M36.7141 102.516C36.7141 102.516 37.4286 103.835 39.8693 101.799C41.8232 100.169 51.1845 93.091 53.2012 90.1907C53.6618 90.3731 54.1699 90.3971 54.6456 90.2591C55.1212 90.1211 55.5375 89.8288 55.8286 89.4283L50.3029 84.5922C48.6496 84.7824 48.6851 85.8923 48.8572 86.5225L44.6891 88.4097L33.9257 95.2838L36.1807 101.572L36.7141 102.516Z" fill="#701210"/>
<path d="M26.2868 114.667L25.8842 116.582L25.5425 123.648L40.5895 124.474L40.1222 113.607L38.6637 111.212L26.2868 114.667Z" fill="#A0616A"/>
<path d="M32.6639 89.1485C36.2554 89.1485 39.1669 86.2389 39.1669 82.6497C39.1669 79.0606 36.2554 76.1509 32.6639 76.1509C29.0724 76.1509 26.1609 79.0606 26.1609 82.6497C26.1609 86.2389 29.0724 89.1485 32.6639 89.1485Z" fill="#A0616A"/>
<path d="M21.1186 106.62L21.0786 101.218C21.0777 99.2744 21.7359 97.3877 22.9458 95.8659C24.1558 94.344 25.8461 93.2768 27.7409 92.8384L27.7655 92.8326L29.0514 91.1011L34.2757 91.6234L35.2333 93.5792L39.0189 95.8318L40.4764 100.514C41.1086 100.935 41.6474 101.482 42.0593 102.12C42.4712 102.758 42.7474 103.474 42.8708 104.223C43.3657 107.382 41.1526 110.542 40.8893 110.905L40.211 114.722L25.4557 117.324L25.3359 117.339L21.1186 106.62Z" fill="#701210"/>
<path d="M40.6217 81.4911C39.8631 81.9712 39.0761 82.4049 38.265 82.7896C37.4417 83.1849 36.5805 83.496 35.6947 83.7182C35.4412 83.1624 35.1311 82.6343 34.7691 82.1422C34.8622 82.7253 34.8646 83.3193 34.7762 83.9032C33.3079 84.1399 31.804 84.0166 30.394 83.5439L29.1693 81.4911L29.0768 83.7822C28.0622 83.9672 27.0512 84.1415 26.0366 84.323C25.9761 84.3301 25.9156 84.3443 25.8586 84.355C25.2285 81.516 26.122 78.3889 28.1085 76.4962C29.0948 75.5664 30.3251 74.9356 31.6561 74.6774C32.9872 74.4191 34.3643 74.5441 35.6271 75.0376C35.7873 75.1016 35.951 75.1728 36.1076 75.2475C36.1076 75.248 36.1077 75.2484 36.1079 75.2489C36.1081 75.2493 36.1083 75.2497 36.1087 75.2501C36.109 75.2504 36.1094 75.2507 36.1098 75.2508C36.1103 75.251 36.1107 75.2511 36.1112 75.2511C36.2038 75.2973 36.2821 75.4076 36.3853 75.3969C40.8281 74.9024 40.9705 78.3462 40.6217 81.4911Z" fill="#2F2E41"/>
<path d="M29.8032 184.47L33.0573 186.972L44.2635 175.619L39.4607 171.927L29.8032 184.47Z" fill="#A0616A"/>
<path d="M30.2316 182.245L35.6117 185.894L33.9159 188.096L36.2074 195.232C36.3207 195.585 36.3182 195.964 36.2004 196.315C36.0826 196.666 35.8556 196.97 35.5526 197.183C35.2496 197.396 34.8864 197.506 34.5161 197.498C34.1458 197.49 33.7878 197.364 33.4942 197.139L27.3702 192.429L27.9921 189.439L25.9025 191.301L23.5935 189.525L30.2316 182.245Z" fill="#2F2E41"/>
<path d="M19.2439 170.614L19.2437 170.572L20.7859 167.916L19.2111 164.459L19.1639 155.576L19.4192 154.243C19.7625 152.45 19.6626 150.6 19.1281 148.854L19.0994 143.447C19.044 142.092 21.1436 140.901 20.654 139.772C16.0261 129.099 25.3798 120.957 25.443 120.892L25.6342 120.693L26.6712 121.478L27.6584 121.48L40.9791 123.905L41.0753 124.084C41.5992 125.067 42.6103 128.452 42.6703 129.983C43.3342 130.751 50.8964 139.496 51.5686 140.104C56.1113 144.212 58.7121 151.01 59.8581 154.697C60.1427 155.608 60.2001 156.575 60.0252 157.514C59.8503 158.452 59.4485 159.334 58.8548 160.081L41.6575 178.906L37.0296 174.637L46.3349 157.691L45.6639 155.972C44.4599 155.75 43.3704 155.118 42.5811 154.182L40.6968 151.947C40.1751 151.33 39.8436 150.575 39.7424 149.773L38.5997 149.636L34.5066 145.341L31.6669 171.041L30.8949 173.071L17.45 188.867L11.7542 185.31L19.2439 170.614Z" fill="#2F2E41"/>
<path d="M17.1906 60.2624C16.9323 60.5874 16.7485 60.965 16.652 61.3687C16.5555 61.7724 16.5488 62.1923 16.6323 62.5988C16.7157 63.0054 16.8874 63.3887 17.1351 63.7218C17.3829 64.0548 17.7007 64.3296 18.0662 64.5266L13.791 77.1751L17.2819 90.5791L22.9111 88.0359L19.4375 77.9256L22.0363 63.2093C22.3268 62.5738 22.374 61.8538 22.1689 61.1858C21.9637 60.5178 21.5205 59.9483 20.9232 59.585C20.3259 59.2218 19.6161 59.0901 18.9281 59.2149C18.2402 59.3398 17.622 59.7125 17.1906 60.2624V60.2624Z" fill="#A0616A"/>
<path d="M22.3432 101.623C22.3432 101.623 21.0211 102.333 20.1016 99.291C19.3655 96.856 14.3558 83.6347 14.2656 80.1041C13.7806 80.0035 13.3428 79.7446 13.0213 79.3681C12.6997 78.9915 12.5127 78.5188 12.4896 78.0243L19.7655 77.0181C21.0423 78.0849 20.4024 78.9928 19.912 79.4247L22.3902 83.6196L27.5698 94.9443L23.308 101.127L22.3432 101.623Z" fill="#701210"/>
<path d="M26.0352 84.3224C26.7823 82.0706 28.1221 80.0612 29.914 78.505C31.7059 76.9489 33.8838 75.9033 36.2192 75.4779C36.2285 75.4749 36.2596 75.4625 36.2999 75.4439C36.3247 75.4284 36.3557 75.4129 36.3867 75.3974C36.2937 75.3447 36.2037 75.2982 36.1106 75.2517C36.1102 75.2517 36.1098 75.2516 36.1094 75.2514C36.1091 75.2513 36.1087 75.251 36.1084 75.2508C36.1081 75.2505 36.1079 75.2501 36.1078 75.2497C36.1076 75.2494 36.1075 75.249 36.1076 75.2485C36.0269 75.1742 35.9462 75.0997 35.8625 75.0285L35.6267 75.0378C35.6267 75.0378 27.3411 73.7265 26.0352 84.3224Z" fill="#FD6584"/>
<path d="M132.949 156.742C133.853 155.383 133.318 153.439 131.754 152.399C130.189 151.358 128.188 151.616 127.283 152.975C126.379 154.333 126.914 156.277 128.479 157.318C130.043 158.358 132.045 158.1 132.949 156.742Z" fill="#F2F2F2"/>
<path d="M114.593 106.044C115.497 104.685 114.962 102.741 113.397 101.701C111.833 100.661 109.831 100.919 108.927 102.277C108.023 103.635 108.558 105.58 110.123 106.62C111.687 107.66 113.688 107.402 114.593 106.044Z" fill="#F2F2F2"/>
<path d="M191.356 184.092C192.261 182.733 191.725 180.789 190.161 179.749C188.596 178.709 186.595 178.966 185.691 180.325C184.786 181.683 185.322 183.627 186.886 184.668C188.451 185.708 190.452 185.45 191.356 184.092Z" fill="#F2F2F2"/>
<path d="M36.1605 20.9918C37.0647 19.6335 36.5295 17.689 34.965 16.6488C33.4004 15.6086 31.3991 15.8665 30.4948 17.2248C29.5905 18.5831 30.1257 20.5275 31.6903 21.5677C33.2548 22.608 35.2562 22.3501 36.1605 20.9918Z" fill="#F2F2F2"/>
<path d="M108.585 4.98193C109.489 3.62361 108.954 1.67921 107.39 0.638995C105.825 -0.401222 103.824 -0.143354 102.919 1.21497C102.015 2.57329 102.55 4.5177 104.115 5.55792C105.679 6.59814 107.681 6.34025 108.585 4.98193Z" fill="#F2F2F2"/>
<path d="M74.3085 139.302C75.2128 137.944 74.6776 136 73.113 134.96C71.5485 133.919 69.5471 134.177 68.6428 135.535C67.7386 136.894 68.2738 138.838 69.8383 139.878C71.4029 140.919 73.4042 140.661 74.3085 139.302Z" fill="#E6E6E6"/>
<path d="M223.704 210H6.66614C6.56094 210 6.46016 209.958 6.38588 209.883C6.31161 209.809 6.2699 209.708 6.2699 209.603C6.2699 209.498 6.31161 209.397 6.38588 209.323C6.46016 209.248 6.56094 209.206 6.66614 209.206H223.704C223.81 209.206 223.911 209.248 223.985 209.322C224.06 209.397 224.102 209.498 224.102 209.603C224.102 209.708 224.06 209.809 223.985 209.884C223.911 209.958 223.81 210 223.704 210V210Z" fill="#CCCCCC"/>
<path d="M47.0621 78.1018C45.2365 78.0966 43.4768 77.4191 42.1194 76.1989C40.7621 74.9787 39.9024 73.3014 39.7046 71.4876L35.4674 32.1612C35.2593 30.2087 35.8346 28.2533 37.0673 26.7241C38.2999 25.195 40.0893 24.2169 42.0426 24.0046L167.853 10.467C169.807 10.2588 171.763 10.8337 173.293 12.0656C174.824 13.2974 175.802 15.0856 176.015 17.0377L180.252 56.3639C180.46 58.3165 179.885 60.272 178.652 61.8012C177.419 63.3304 175.63 64.3085 173.677 64.5209L173.659 64.3551L173.677 64.5209L47.8667 78.0585C47.5995 78.0873 47.3309 78.1018 47.0621 78.1018V78.1018Z" fill="#E6E6E6"/>
<path d="M166.467 12.2926C166.231 12.2927 165.994 12.3054 165.759 12.3307L44.4853 25.3802C43.6374 25.4715 42.8157 25.7287 42.0672 26.1373C41.3187 26.5459 40.6581 27.0979 40.123 27.7616C39.588 28.4254 39.189 29.1879 38.9488 30.0058C38.7087 30.8236 38.6321 31.6807 38.7234 32.5282L40.8657 52.4119C41.212 55.6264 42.1885 58.7412 43.7393 61.5785C45.2902 64.4159 47.3851 66.9202 49.9044 68.9484C52.4237 70.9766 55.3182 72.4891 58.4224 73.3995C61.5266 74.3098 64.7799 74.6002 67.9964 74.2541L153.272 65.0781C156.479 64.733 159.586 63.7601 162.417 62.215C165.247 60.6698 167.746 58.5826 169.769 56.0726C171.792 53.5626 173.301 50.6788 174.209 47.586C175.118 44.4933 175.407 41.252 175.062 38.0473L172.912 18.089C172.74 16.4992 171.988 15.0286 170.799 13.959C169.609 12.8894 168.067 12.296 166.467 12.2926V12.2926Z" fill="white"/>
<path d="M140.928 32.9859L73.1469 40.2795C72.9531 40.3006 72.757 40.2833 72.5699 40.2287C72.3828 40.174 72.2082 40.083 72.0563 39.9609C71.9044 39.8387 71.7781 39.6879 71.6846 39.5169C71.5911 39.346 71.5322 39.1583 71.5113 38.9646C71.4905 38.7709 71.508 38.5749 71.563 38.388C71.6179 38.2011 71.7092 38.0268 71.8316 37.8752C71.954 37.7235 72.1051 37.5975 72.2763 37.5043C72.4475 37.411 72.6354 37.3524 72.8293 37.3318L140.611 30.0383C140.805 30.0172 141.001 30.0344 141.188 30.0891C141.375 30.1438 141.55 30.2348 141.701 30.3569C141.853 30.479 141.98 30.6299 142.073 30.8008C142.167 30.9718 142.226 31.1595 142.246 31.3532C142.267 31.5469 142.25 31.7428 142.195 31.9298C142.14 32.1167 142.049 32.291 141.926 32.4426C141.804 32.5942 141.653 32.7203 141.481 32.8135C141.31 32.9067 141.122 32.9653 140.928 32.9859V32.9859Z" fill="#701210"/>
<path d="M141.903 42.0324L74.1216 49.326C73.7305 49.3681 73.3386 49.2531 73.0323 49.0065C72.7259 48.7599 72.5301 48.4017 72.488 48.0108C72.4459 47.62 72.5609 47.2284 72.8077 46.9222C73.0545 46.6161 73.4129 46.4204 73.804 46.3783L141.586 39.0848C141.977 39.0427 142.369 39.1576 142.675 39.4042C142.981 39.6509 143.177 40.009 143.219 40.3999C143.261 40.7908 143.146 41.1824 142.9 41.4885C142.653 41.7947 142.294 41.9903 141.903 42.0324V42.0324Z" fill="#701210"/>
<path d="M82.9952 57.5223L75.0962 58.3723C74.7051 58.4143 74.3132 58.2994 74.0069 58.0528C73.7005 57.8062 73.5047 57.448 73.4626 57.0571C73.4205 56.6662 73.5355 56.2746 73.7823 55.9685C74.0291 55.6623 74.3875 55.4667 74.7786 55.4246L82.6776 54.5747C82.8714 54.5535 83.0675 54.5708 83.2546 54.6255C83.4417 54.6801 83.6162 54.7712 83.7681 54.8933C83.92 55.0154 84.0463 55.1663 84.1399 55.3372C84.2334 55.5082 84.2923 55.6959 84.3131 55.8896C84.334 56.0833 84.3164 56.2792 84.2615 56.4661C84.2065 56.6531 84.1152 56.8273 83.9928 56.979C83.8704 57.1306 83.7193 57.2566 83.5481 57.3499C83.3769 57.4431 83.189 57.5017 82.9952 57.5223Z" fill="#701210"/>
<path d="M44.3953 33.8206C45.8699 33.8206 47.0653 32.626 47.0653 31.1523C47.0653 29.6786 45.8699 28.484 44.3953 28.484C42.9206 28.484 41.7252 29.6786 41.7252 31.1523C41.7252 32.626 42.9206 33.8206 44.3953 33.8206Z" fill="#3F3D56"/>
<path d="M163.879 20.4791C165.354 20.4791 166.549 19.2845 166.549 17.8108C166.549 16.3372 165.354 15.1425 163.879 15.1425C162.405 15.1425 161.209 16.3372 161.209 17.8108C161.209 19.2845 162.405 20.4791 163.879 20.4791Z" fill="#3F3D56"/>
<path d="M127.781 75.2583C127.536 75.0429 127.342 74.7757 127.213 74.4759C127.084 74.1762 127.023 73.8514 127.035 73.5253C127.169 69.6497 126.531 65.7861 125.156 62.1595C125.04 61.8546 124.993 61.5276 125.018 61.2023C125.044 60.877 125.142 60.5614 125.305 60.2787C125.461 60.0069 125.675 59.7727 125.932 59.5924C126.188 59.412 126.481 59.29 126.79 59.2348C129.893 57.3632 133.075 56.8378 136.248 57.6734C136.759 57.5981 137.281 57.7076 137.719 57.9821C138.158 58.2567 138.483 58.6783 138.639 59.1713C139.923 63.3392 140.638 67.6616 140.763 72.0209C140.775 72.5439 140.598 73.0537 140.264 73.4565C139.93 73.8594 139.462 74.1284 138.945 74.214L129.556 75.7643C129.241 75.8169 128.918 75.7988 128.611 75.7113C128.305 75.6238 128.021 75.469 127.781 75.2583V75.2583Z" fill="#701210"/>
<path d="M128.616 63.9661L136.518 62.6613C136.583 62.6508 136.646 62.6275 136.702 62.5928C136.758 62.5582 136.806 62.5128 136.845 62.4594C136.883 62.4059 136.911 62.3455 136.926 62.2814C136.941 62.2173 136.943 62.1509 136.932 62.086C136.921 62.0211 136.898 61.9589 136.863 61.9031C136.828 61.8472 136.783 61.7988 136.729 61.7605C136.676 61.7222 136.615 61.6949 136.551 61.6801C136.487 61.6653 136.42 61.6632 136.355 61.6741L128.452 62.9789C128.322 63.0008 128.205 63.0736 128.128 63.1814C128.051 63.2892 128.02 63.4232 128.041 63.5539C128.063 63.6846 128.135 63.8014 128.243 63.8787C128.351 63.956 128.485 63.9874 128.616 63.9661Z" fill="white"/>
<path d="M129.268 67.9151L137.171 66.6103C137.302 66.5886 137.419 66.5159 137.497 66.408C137.574 66.3002 137.605 66.166 137.584 66.0351C137.562 65.9042 137.489 65.7872 137.381 65.7099C137.273 65.6327 137.139 65.6014 137.008 65.623L129.105 66.9278C129.04 66.9384 128.978 66.9617 128.922 66.9963C128.866 67.031 128.817 67.0763 128.779 67.1298C128.741 67.1832 128.713 67.2437 128.698 67.3078C128.683 67.3719 128.681 67.4383 128.692 67.5032C128.702 67.5681 128.726 67.6303 128.761 67.6861C128.795 67.742 128.841 67.7904 128.894 67.8287C128.948 67.8669 129.009 67.8943 129.073 67.9091C129.137 67.9239 129.203 67.9259 129.268 67.9151V67.9151Z" fill="white"/>
<path d="M129.921 71.864L137.824 70.5592C137.955 70.5375 138.072 70.4648 138.149 70.3569C138.227 70.2491 138.258 70.1149 138.236 69.984C138.215 69.8531 138.142 69.7361 138.034 69.6588C137.926 69.5816 137.792 69.5503 137.661 69.5719L129.758 70.8767C129.693 70.8874 129.631 70.9108 129.575 70.9455C129.519 70.9802 129.471 71.0256 129.433 71.079C129.394 71.1324 129.367 71.1928 129.352 71.2568C129.337 71.3208 129.335 71.3871 129.346 71.4519C129.356 71.5167 129.38 71.5788 129.414 71.6346C129.449 71.6904 129.495 71.7388 129.548 71.7771C129.601 71.8153 129.662 71.8427 129.726 71.8576C129.79 71.8725 129.856 71.8747 129.921 71.864Z" fill="white"/>
</g>
<defs>
<clipPath id="clip0_220_114">
<rect width="244" height="210" fill="white"/>
</clipPath>
</defs>
</svg>
