<svg width="30" height="30" viewBox="0 0 30 30" fill="none" xmlns="http://www.w3.org/2000/svg">
<circle cx="15" cy="15" r="14.75" stroke="#701210" stroke-width="0.5"/>
<path d="M20.3333 21V19.6667C20.3333 18.9594 20.0524 18.2811 19.5523 17.781C19.0522 17.281 18.3739 17 17.6667 17H12.3333C11.6261 17 10.9478 17.281 10.4477 17.781C9.94761 18.2811 9.66666 18.9594 9.66666 19.6667V21" stroke="#701210" stroke-linecap="round" stroke-linejoin="round"/>
<path d="M15 14.3333C16.4728 14.3333 17.6667 13.1394 17.6667 11.6667C17.6667 10.1939 16.4728 9 15 9C13.5273 9 12.3333 10.1939 12.3333 11.6667C12.3333 13.1394 13.5273 14.3333 15 14.3333Z" stroke="#701210" stroke-linecap="round" stroke-linejoin="round"/>
</svg>
